<?xml version="1.0" encoding="UTF-8"?>
<svg width="50px" height="50px" viewBox="0 0 50 50" version="1.1" xmlns="http://www.w3.org/2000/svg" xmlns:xlink="http://www.w3.org/1999/xlink">
    <!-- Generator: Sketch 44.1 (41455) - http://www.bohemiancoding.com/sketch -->
    <title>xxhdpi/ic_launcher_APP Copy 12</title>
    <desc>Created with Sketch.</desc>
    <defs>
        <polygon id="path-1" points="0.00867256637 45.9915077 0.00867256637 0.02944 48.8895693 0.02944 48.8895693 45.9915077"></polygon>
    </defs>
    <g id="Page-1" stroke="none" stroke-width="1" fill="none" fill-rule="evenodd">
        <g id="xxhdpi/ic_launcher_APP-Copy-12">
            <g id="UOA-NT-VR-4C" transform="translate(0.000000, 2.000000)">
                <g id="Group-3">
                    <mask id="mask-2" fill="white">
                        <use xlink:href="#path-1"></use>
                    </mask>
                    <g id="Clip-2"></g>
                    <polygon id="Fill-1" fill="#FFFFFF" mask="url(#mask-2)" points="6.99587021 0.02944 48.8895693 0.02944 48.8895693 39.1360923 41.8799676 46 0.0273185841 46 0 6.87990154"></polygon>
                </g>
                <g id="Group-2" transform="translate(8.750000, 2.603774)">
                    <path d="M0.71437548,10.0094959 C0.720456504,10.0094959 0.72383485,10.009166 0.730591543,10.009166 C1.6322722,10.009166 2.51942597,10.2348597 3.3028645,10.6624898 L3.30387801,10.6618299 L3.40725541,10.7133039 C4.92683562,11.5890219 6.92039784,11.5900118 8.43524837,10.7179234 L8.50788282,10.6760183 L8.51430168,10.6789879 C10.1193541,9.79106137 12.2048073,9.80821937 13.7929679,10.7261724 L13.8213461,10.7463001 C15.3361966,11.6058499 17.3196238,11.5982608 18.8263663,10.729472 L18.8716361,10.7076946 C20.4804047,9.79931041 22.5874793,9.80920926 24.1861129,10.7340915 C25.7208956,11.614099 27.7070255,11.6074997 29.2225517,10.7344215 C30.0343683,10.2678558 30.9651028,10.026324 31.9100263,10.0273138 L31.9100263,1.15728725 L0.71437548,1.15728725 L0.71437548,10.0094959" id="Fill-4" fill="#FFFFFF"></path>
                    <path d="M16.1665941,27.4395847 C16.1142298,27.2267103 16.0581492,27.0338428 16.0020687,26.8401751 L15.4584927,26.8401751 C15.3655882,26.8401751 15.2899132,27.0194378 15.2899132,27.2395147 C15.2899132,27.460392 15.3655882,27.6388544 15.4584927,27.6388544 L17.169963,27.6388544 C17.2628675,27.6388544 17.3385425,27.460392 17.3385425,27.2395147 C17.3385425,27.0194378 17.2628675,26.8401751 17.169963,26.8401751 L16.6226709,26.8401751 C16.5669282,27.0330425 16.5105098,27.22591 16.4584833,27.4395847 L16.1665941,27.4395847" id="Fill-5" fill="#FFFFFF"></path>
                    <path d="M16.0020687,26.9503449 C16.0759908,27.0540214 16.149913,27.1572695 16.2189368,27.271228 L16.6036883,27.271228 C16.6722668,27.1568411 16.7466343,27.053593 16.8201111,26.9503449 L16.6335244,26.9503449 L16.6335244,26.4709481 C16.5582663,26.5643426 16.4821175,26.6560235 16.4108672,26.7588432 C16.3400623,26.6564519 16.2639135,26.5647711 16.1891007,26.4709481 L16.1891007,26.9503449 L16.0020687,26.9503449" id="Fill-6" fill="#FFFFFF"></path>
                    <polyline id="Fill-7" fill="#FFFFFF" points="10.787591 13.3246197 10.050098 11.064713 9.3122671 13.3246197 6.86431729 13.3246197 8.8734199 14.7404847 8.14234574 16.987523 10.050098 15.579247 11.9578502 16.987523 11.2271138 14.7404847 13.2365543 13.3246197 10.787591 13.3246197"></polyline>
                    <polyline id="Fill-8" fill="#FFFFFF" points="23.3023374 13.3071317 22.5641687 11.0465651 21.8256622 13.3071317 19.3787259 13.3071317 21.3874907 14.721017 20.6567544 16.9677253 22.5641687 15.5610991 24.4712453 16.9677253 23.7411846 14.721347 25.7506251 13.3071317 23.3023374 13.3071317"></polyline>
                    <polyline id="Fill-9" fill="#FFFFFF" points="17.0476669 30.960405 16.3105117 28.7008283 15.5726808 30.960405 13.1240554 30.960405 15.1338336 32.3756102 14.4027595 34.6223184 16.3105117 33.2150324 18.2175882 34.6223184 17.4868519 32.3756102 19.4962924 30.960405 17.0476669 30.960405"></polyline>
                    <path d="M31.9100263,10.0273138 C30.9651028,10.026324 30.0343683,10.2678558 29.2225517,10.7344215 C27.7070255,11.6074997 25.7208956,11.614099 24.1861129,10.7340915 C22.5874793,9.80920926 20.4804047,9.79931041 18.8716361,10.7076946 L18.8263663,10.729472 C17.3196238,11.5982608 15.3361966,11.6058499 13.8213461,10.7463001 L13.7929679,10.7261724 C12.2048073,9.80821937 10.1193541,9.79106137 8.51430168,10.6789879 L8.50788282,10.6760183 L8.43524837,10.7179234 C6.92039784,11.5900118 4.92683562,11.5890219 3.40725541,10.7133039 L3.30387801,10.6618299 L3.3028645,10.6624898 C2.51942597,10.2348597 1.6322722,10.009166 0.730591543,10.009166 C0.72383485,10.009166 0.720456504,10.0094959 0.71437548,10.0094959 L0.71437548,1.15728725 L31.9100263,1.15728725 L31.9100263,10.0273138 Z M14.4027595,34.6223184 L15.1338336,32.3756102 L13.1240554,30.960405 L15.5726808,30.960405 L16.3105117,28.7008283 L17.0476669,30.960405 L19.4962924,30.960405 L17.4868519,32.3756102 L18.2175882,34.6223184 L16.3105117,33.2150324 L14.4027595,34.6223184 Z M11.9578502,16.987523 L10.050098,15.579247 L8.14234574,16.987523 L8.8734199,14.7404847 L6.86431729,13.3246197 L9.3122671,13.3246197 L10.050098,11.064713 L10.787591,13.3246197 L13.2365543,13.3246197 L11.2271138,14.7404847 L11.9578502,16.987523 Z M24.4712453,16.9677253 L22.5641687,15.5610991 L20.6567544,16.9677253 L21.3874907,14.721017 L19.3787259,13.3071317 L21.8256622,13.3071317 L22.5641687,11.0465651 L23.3023374,13.3071317 L25.7506251,13.3071317 L23.7411846,14.721347 L24.4712453,16.9677253 Z M16.4811182,25.5114199 L16.4811182,18.4693803 C17.9780635,17.4669571 19.4922383,17.2703 20.9837783,17.8863382 C22.2148477,18.3954689 23.1340958,18.4848885 24.3519897,18.2103605 L24.396246,18.2321379 L24.396246,25.1309742 C23.4344308,25.6123881 22.6580868,25.7110466 21.2300597,24.986781 C19.4527117,24.085656 17.629756,24.5756489 16.4811182,25.5114199 Z M21.0746558,25.2791269 C22.6712623,26.0881927 23.5607809,25.9374003 24.6442166,25.3764656 L24.7337428,25.329941 L24.7337428,18.3977787 L25.0901584,18.5729882 L25.0904962,25.51076 C23.6394964,26.1898208 22.3526843,26.2614225 21.2645189,25.7239151 C19.8209515,25.0115281 17.7763762,24.832689 16.4811182,26.4709481 L16.4811182,25.9542283 C17.517257,24.9716028 19.3219697,24.3892206 21.0746558,25.2791269 Z M8.22714223,25.1309742 L8.22714223,18.2321379 L8.27106074,18.2103605 C9.48929245,18.4852185 10.4085405,18.3954689 11.6406234,17.8863382 C13.1311499,17.27063 14.6453247,17.4669571 16.1439592,18.4693803 L16.1439592,25.5117498 C15.4196417,24.9227685 14.4284349,24.5106465 13.3500667,24.5106465 C12.7159511,24.5106465 12.0514304,24.6531899 11.394342,24.986781 C9.9656393,25.7110466 9.18929529,25.6127181 8.22714223,25.1309742 Z M7.97950944,25.3764656 C9.06328297,25.9377302 9.95313942,26.0888526 11.5497459,25.2791269 C13.3017564,24.3902105 15.106469,24.9725927 16.1439592,25.9542283 L16.1439592,26.4709481 C14.8666064,24.8551263 12.8216934,24.9164992 11.3531262,25.7278747 C10.1750968,26.3785589 8.85619034,26.3066272 7.53322988,25.5219786 L7.53322988,18.5733182 L7.88998326,18.3977787 L7.88998326,25.329941 L7.97950944,25.3764656 Z M17.5959725,26.316856 L17.3618531,26.4706181 L17.6111751,26.5993031 C17.7713087,26.6817935 17.8706321,26.8457844 17.8706321,27.0269333 C17.8706321,27.2925524 17.6493504,27.5090072 17.3767178,27.5090072 L15.2459947,27.5090072 C14.9740379,27.5090072 14.7524183,27.2925524 14.7524183,27.0269333 C14.7524183,26.8461144 14.8520795,26.6824534 15.0122132,26.5989732 L15.2605216,26.4702882 L15.0274157,26.317186 C14.5128936,25.9786454 13.9328315,25.8097051 13.3497289,25.8097051 C12.767302,25.8097051 12.1818345,25.9786454 11.6571773,26.3161961 C11.0801558,26.6883928 10.5544851,26.8203774 9.64807473,26.8203774 C8.49977479,26.8203774 7.57410787,26.4900859 6.73458879,25.7809985 L6.6869541,25.7407432 L6.1535132,25.7407432 L6.10317584,25.7994763 C6.02817655,25.8865862 5.91533978,25.9367403 5.79405715,25.9367403 C5.57784298,25.9367403 5.40216896,25.7776989 5.40216896,25.5823616 C5.40216896,25.3870244 5.57784298,25.2283129 5.79405715,25.2283129 C5.91567762,25.2283129 6.02885222,25.2794569 6.10385151,25.3682166 L6.15418887,25.4282696 L6.79269635,25.4282696 L6.79269635,24.669028 L6.15554021,24.669028 L6.10486502,24.7277612 C6.02986573,24.814871 5.91702896,24.8650252 5.79608415,24.8650252 C5.57986998,24.8650252 5.40385814,24.7059837 5.40385814,24.5103165 C5.40385814,24.3153092 5.57986998,24.1562678 5.79608415,24.1562678 C5.91838029,24.1562678 6.0315549,24.2070818 6.10655419,24.2958415 L6.15722939,24.3558945 L6.79269635,24.3558945 L6.79269635,23.596653 L6.15790506,23.596653 L6.10722986,23.6557161 C6.0325684,23.7428259 5.92006947,23.7929801 5.79777333,23.7929801 C5.58223483,23.7929801 5.40656081,23.6342686 5.40656081,23.4389313 C5.40656081,23.2432641 5.58223483,23.0842227 5.79777333,23.0842227 C5.92108297,23.0842227 6.03121706,23.1343768 6.10891903,23.2254462 L6.15925639,23.2848393 L6.79269635,23.2848393 L6.79269635,22.5255977 L6.1612834,22.5255977 L6.11094604,22.5840009 C6.03493325,22.6714407 5.92209648,22.7215949 5.80148951,22.7215949 C5.58527534,22.7215949 5.40926349,22.5625534 5.40926349,22.3672162 C5.40926349,22.171879 5.58527534,22.0128375 5.80148951,22.0128375 C5.92310998,22.0128375 6.03628458,22.0639815 6.11128387,22.1530711 L6.16162124,22.2131241 L6.79269635,22.2131241 L6.79269635,21.4538826 L6.16263474,21.4538826 L6.11195954,21.5126158 C6.03696025,21.6000556 5.92479915,21.6502097 5.80317868,21.6502097 C5.58696451,21.6502097 5.4112905,21.4908383 5.4112905,21.2951711 C5.4112905,21.1001638 5.58696451,20.9414523 5.80317868,20.9414523 C5.92479915,20.9414523 6.03831159,20.9925963 6.11466222,21.081686 L6.16533742,21.1407491 L6.79269635,21.1407491 L6.79269635,20.3818375 L6.16635092,20.3818375 L6.11567572,20.4405707 C6.04067643,20.5280105 5.92750183,20.5778347 5.80520569,20.5778347 C5.58966719,20.5778347 5.41399317,20.4187932 5.41399317,20.223456 C5.41399317,20.0281187 5.58966719,19.8690772 5.80520569,19.8690772 C5.92783966,19.8690772 6.0413521,19.9202213 6.11668923,20.0096409 L6.16702659,20.0693639 L6.79269635,20.0693639 L6.79269635,19.3107823 L6.16668876,19.3107823 L6.11601356,19.3691855 C6.04067643,19.4562953 5.927164,19.5064495 5.80520569,19.5064495 C5.58966719,19.5064495 5.41399317,19.347408 5.41399317,19.1520708 C5.41399317,18.9567335 5.58966719,18.7976921 5.80520569,18.7976921 C5.9281775,18.7976921 6.04168994,18.8485061 6.11668923,18.9372658 L6.16668876,18.9963289 L6.66364351,19.0006184 L7.19607091,18.7389589 L7.19607091,25.613708 L7.27478638,25.7529517 C8.73524553,26.6507771 10.203137,26.7415166 11.519003,26.0142813 C12.906152,25.2477806 14.8551201,25.2104949 16.0020687,26.8401751 L15.4584927,26.8401751 C15.3655882,26.8401751 15.2899132,26.9140865 15.2899132,27.0048259 C15.2899132,27.0958953 15.3655882,27.1694767 15.4584927,27.1694767 L17.169963,27.1694767 C17.2628675,27.1694767 17.3385425,27.0958953 17.3385425,27.0048259 C17.3385425,26.9140865 17.2628675,26.8401751 17.169963,26.8401751 L16.6226709,26.8401751 C17.7885383,25.184098 19.7429117,25.3421496 21.1121555,26.0182408 C22.3236305,26.6161312 23.7438873,26.5296812 25.334075,25.7615307 L25.427993,25.613708 L25.4276552,18.7389589 L25.9607582,19.0006184 L26.4563616,18.9963289 L26.5063612,18.9379257 C26.582374,18.8488361 26.6962242,18.7976921 26.819196,18.7976921 C27.0347345,18.7976921 27.2100707,18.9567335 27.2100707,19.1520708 C27.2100707,19.347408 27.0347345,19.5064495 26.819196,19.5064495 C26.6972377,19.5064495 26.5833875,19.4559654 26.5070368,19.3685256 L26.4563616,19.3107823 L25.8313676,19.3107823 L25.8313676,20.0693639 L26.4560238,20.0693639 L26.506699,20.0099708 C26.5827118,19.9205512 26.6965621,19.8690772 26.819196,19.8690772 C27.0347345,19.8690772 27.2100707,20.0281187 27.2100707,20.223456 C27.2100707,20.4187932 27.0347345,20.5778347 26.819196,20.5778347 C26.6968999,20.5778347 26.5833875,20.5276805 26.5073747,20.4399107 L26.4566995,20.3818375 L25.8313676,20.3818375 L25.8313676,21.1407491 L26.4604157,21.1407491 L26.510753,21.0806961 C26.5854145,20.9922664 26.6979134,20.9414523 26.8202096,20.9414523 C27.0360859,20.9414523 27.2117599,21.1001638 27.2117599,21.2951711 C27.2117599,21.4908383 27.0360859,21.6502097 26.8202096,21.6502097 C26.7006161,21.6502097 26.5854145,21.5990657 26.5121044,21.5129457 L26.4614292,21.4538826 L25.8313676,21.4538826 L25.8313676,22.2131241 L26.461767,22.2131241 L26.5124422,22.1534011 C26.5881172,22.0639815 26.7016296,22.0128375 26.8235879,22.0128375 C27.0394642,22.0128375 27.2148004,22.171879 27.2148004,22.3672162 C27.2148004,22.5625534 27.0394642,22.7215949 26.8235879,22.7215949 C26.7019674,22.7215949 26.5887928,22.6714407 26.5131179,22.5840009 L26.4624427,22.5255977 L25.8313676,22.5255977 L25.8313676,23.2848393 L26.4634562,23.2848393 L26.5141314,23.2254462 C26.5898063,23.1356967 26.7036566,23.0842227 26.8252771,23.0842227 C27.0408156,23.0842227 27.2158139,23.2432641 27.2158139,23.4389313 C27.2158139,23.6342686 27.0408156,23.7929801 26.8252771,23.7929801 C26.7033188,23.7929801 26.5901442,23.7428259 26.5154827,23.6557161 L26.4648075,23.596653 L25.8313676,23.596653 L25.8313676,24.3558945 L26.4675102,24.3558945 L26.5181854,24.2961715 C26.5941982,24.205762 26.7046701,24.1562678 26.8279797,24.1562678 C27.0435182,24.1562678 27.2191923,24.3153092 27.2191923,24.5103165 C27.2191923,24.7059837 27.0435182,24.8650252 26.8279797,24.8650252 C26.7066971,24.8650252 26.5938603,24.814871 26.5188611,24.7274312 L26.4681859,24.669028 L25.8313676,24.669028 L25.8313676,25.4282696 L26.4691994,25.4282696 L26.5195367,25.3685465 C26.5948738,25.2794569 26.7077106,25.2283129 26.8289933,25.2283129 C27.0452074,25.2283129 27.2208814,25.3870244 27.2208814,25.5823616 C27.2208814,25.7776989 27.0452074,25.9367403 26.8289933,25.9367403 C26.7093998,25.9367403 26.5962252,25.8859262 26.5185232,25.7978265 L26.467848,25.7407432 L25.9374476,25.7407432 L25.8898129,25.7809985 C25.0496182,26.4900859 24.1236134,26.8203774 22.9756513,26.8203774 C22.0695788,26.8203774 21.5439081,26.6883928 20.9655352,26.3161961 C19.9175722,25.6410948 18.6263682,25.6410948 17.5959725,26.316856 Z M-0.000144786275,0.459418551 L-0.000144786275,16.5361355 C-0.000144786275,17.8655507 0.536674459,21.3704023 2.56908766,25.1197555 C5.3859529,30.31665 9.96462579,34.239233 16.1780805,36.7789472 L16.315917,36.8353706 L16.4537536,36.7789472 C29.7191686,31.3566889 32.6242087,20.3280538 32.6242087,16.5361355 L32.6242087,0.459418551 L-0.000144786275,0.459418551 L-0.000144786275,0.459418551 Z" id="Fill-10" fill="#003C68"></path>
                    <path d="M5.1791981,3.2984078 C5.75385482,2.63881464 6.50182072,2.56985268 6.84539855,2.55368456 C9.27274045,2.48010313 10.5048234,4.2562862 10.450432,5.67611078 C10.3886083,7.29622203 9.13253907,7.67402802 8.96193258,7.72022263 C8.96193258,7.72022263 8.94031116,8.07196166 9.22206525,8.54479657 C9.23997049,8.57911257 9.29436186,8.62101769 9.24165966,8.71208708 C9.23253813,8.73188477 9.18557911,8.81899462 9.17172789,8.8354927 C9.16159285,8.85100089 9.13828226,8.90181497 9.157201,8.96285786 C9.18659261,9.06712571 9.14639029,9.19383095 9.06598565,9.33868408 C9.00517541,9.47000878 9.07612069,9.79832053 9.11024199,10.0200547 C9.11564734,10.0669092 9.08253954,10.068559 9.05247226,10.034903 C8.89706833,9.93789427 8.77916404,9.63531952 8.73862388,9.46736908 C8.44538341,9.54293028 8.10484609,9.96660092 7.98930665,10.2134122 C7.97950944,10.2487181 7.91633436,10.2850138 7.90586149,10.2071429 C7.90146964,10.1876752 7.84302425,9.7118706 8.3136279,9.36541096 C8.07511664,9.29149957 7.82680818,9.40500635 7.6592422,9.49442593 C7.64708015,9.50597459 7.57647271,9.53666101 7.62917492,9.46175974 C7.63964779,9.44526166 7.77613299,9.14334683 8.40653243,9.05623698 C8.41464046,9.03478948 8.5467338,8.83219308 8.60180085,8.67546134 C8.58490912,8.44481822 8.46261298,8.15544193 8.3136279,7.8861933 C8.29065515,7.88751314 7.84133507,7.92446884 7.52444618,8.16303105 C7.50350043,8.17556958 7.46397378,8.21648482 7.46397378,8.27719774 C7.46397378,8.33824063 7.46397378,8.40984229 7.46397378,8.40984229 C7.46836563,8.42832014 7.43998752,8.55106584 7.27816473,8.60187992 C7.26431351,8.61474842 6.73154828,8.77906927 6.4781723,8.89653559 C6.46499674,8.90742432 6.23695836,9.00443302 6.06973021,9.23474619 C6.03391974,9.27170188 5.90013722,9.47429828 5.70588231,9.53666101 C5.65892329,9.54688982 5.55385672,9.59440428 5.48020876,9.66765575 C5.40453381,9.74090722 5.33662904,9.81448864 5.27277829,9.85342411 C5.20858971,9.89301949 5.06568566,10.0444718 4.96230826,10.2530076 C4.94541653,10.2820442 4.91501141,10.3203197 4.9129844,10.2530076 C4.90757905,10.1678775 4.91906543,10.0593201 4.91501141,10.0576703 C4.97649731,9.79535087 5.09913129,9.6620464 5.20487353,9.54688982 C5.16331987,9.53534117 5.16973873,9.54293028 5.12615806,9.51983297 C4.93088964,9.54293028 4.32312512,9.48914655 3.95860154,9.66270633 C3.93123693,9.67656471 3.90218316,9.67227521 3.93123693,9.63432963 C3.99846603,9.54458009 4.13495122,9.19977026 4.9558894,9.18129241 C4.96534877,9.10540125 4.58900098,8.92590217 4.39778657,8.92590217 C4.33798984,8.92590217 4.37380031,8.89323597 4.39778657,8.88399705 C4.44102941,8.86485928 4.80251247,8.712747 5.2308868,8.98496529 C5.2484542,8.97242675 5.53764065,8.87013866 5.70216612,8.8569402 C5.90013722,8.712747 6.33999793,8.28214717 6.51702328,8.21450505 C6.5133071,8.18942797 6.50013155,8.0973687 6.52141513,8.0046495 L6.50013155,8.00003004 C6.26972832,7.68260702 6.23526919,7.21439157 6.24472856,6.95669159 C5.7741249,6.91313666 5.26838644,6.50200456 5.00014574,6.16841343 C4.65927059,6.146306 3.97887162,5.86187914 3.61536154,5.14388279 C2.37550841,6.01465134 1.56943496,7.56415082 1.52382728,7.63575248 C1.4947735,7.65818986 1.47889527,7.65818986 1.45693602,7.64169178 C1.32045083,7.40114981 1.29342406,7.03357263 1.33903173,6.91874601 C1.58024567,6.27829063 2.15186188,5.39630338 2.77415329,4.61264468 C2.53834471,3.29345837 3.78292753,2.85526942 4.26501756,2.8717675 C4.76737767,2.88232627 5.11703653,3.20007925 5.1791981,3.2984078" id="Fill-11" fill="#003C68"></path>
                    <path d="M3.53326773,4.5060671 C3.42212013,4.5060671 3.33293178,4.4176374 3.33293178,4.30875009 C3.33293178,4.19986277 3.42212013,4.11143307 3.53326773,4.11143307 C3.64475316,4.11143307 3.73529284,4.19986277 3.73529284,4.30875009 C3.73529284,4.4176374 3.64475316,4.5060671 3.53326773,4.5060671 Z M7.60552649,3.49044542 C7.60552649,3.49044542 7.57647271,3.49044542 7.60181031,3.46866796 C7.63018842,3.39937603 7.88086173,3.29345837 8.04471153,3.28223968 C7.31870488,3.00012255 6.84539855,3.34493238 6.85823627,3.30632687 L6.85249308,3.28223968 C6.85249308,3.28223968 6.95080296,3.12055852 7.18998988,2.95854739 C6.51702328,2.95854739 6.17412112,3.30929653 6.17412112,3.30929653 L6.17243194,3.26112214 C6.17243194,3.26112214 6.21770179,3.12616786 6.43324029,2.9258812 C5.67311234,2.94864854 5.08156389,3.89002887 5.08156389,3.89002887 C5.08156389,3.89002887 4.94947054,3.21657733 4.28832815,3.21657733 C3.80522461,3.14497567 2.72314026,3.79170033 3.13867687,4.66708834 C2.94644896,5.01684759 2.31131983,5.55930439 1.7697709,6.65576665 C1.75794669,6.67886396 1.78159511,6.67094488 1.7697709,6.69404219 C2.25827979,6.01465134 2.96435419,5.14388279 3.68292847,4.7172425 C3.75522509,4.77168615 4.16941036,5.8236036 5.12277971,5.88299668 C5.2308868,5.95954776 5.70588231,6.73759711 6.55283375,6.66104603 C6.56296879,6.74815588 6.56195529,7.49617874 6.70722418,7.7393604 L6.74371032,7.78390522 C6.74033198,7.76080791 6.74911568,7.78093556 6.74911568,7.78093556 C6.81668261,7.70735413 7.29573213,7.36782369 7.69167433,7.24144841 C7.69167433,7.24144841 7.86228082,6.72670838 7.97748243,6.59571364 C8.80112329,6.41093517 9.22476793,5.77476929 9.24976769,5.16038087 C9.26699726,4.30545047 8.48288306,3.38023826 7.60552649,3.49044542 L7.60552649,3.49044542 Z" id="Fill-12" fill="#FFFFFF"></path>
                    <path d="M15.4284254,3.2984078 C16.0020687,2.63881464 16.7513859,2.56985268 17.0942881,2.55368456 C19.5212921,2.48010313 20.7547264,4.2562862 20.698308,5.67611078 C20.6371599,7.29622203 19.3810907,7.67402802 19.2101464,7.72022263 C19.2101464,7.72022263 19.1898763,8.07196166 19.4702791,8.54479657 C19.4885222,8.57911257 19.5432514,8.62101769 19.4905492,8.71208708 C19.4831168,8.73188477 19.433793,8.81899462 19.4212931,8.8354927 C19.4084554,8.85100089 19.3875096,8.90181497 19.4047392,8.96285786 C19.43582,9.06712571 19.3939285,9.19383095 19.3155508,9.33868408 C19.2537271,9.47000878 19.3246724,9.79832053 19.3574423,10.0200547 C19.3655504,10.0669092 19.3300777,10.068559 19.3010239,10.034903 C19.1473092,9.93789427 19.0280535,9.63531952 18.9898782,9.46736908 C18.6929216,9.54293028 18.3527221,9.96660092 18.2378583,10.2134122 C18.2270476,10.2487181 18.1652239,10.2850138 18.152724,10.2071429 C18.1483321,10.1876752 18.0905624,9.7118706 18.5628552,9.36541096 C18.3233305,9.29149957 18.0760355,9.40500635 17.9071182,9.49442593 C17.8949562,9.50597459 17.8243487,9.53666101 17.8780644,9.46175974 C17.8878616,9.44526166 18.0250225,9.14334683 18.6547463,9.05623698 C18.6628543,9.03478948 18.7939341,8.83219308 18.8506904,8.67546134 C18.83515,8.44481822 18.7111647,8.15544193 18.5628552,7.8861933 C18.5381933,7.88751314 18.0905624,7.92446884 17.77266,8.16303105 C17.7527278,8.17556958 17.7118498,8.21648482 17.7118498,8.27719774 C17.7118498,8.33824063 17.7118498,8.40984229 17.7118498,8.40984229 C17.7169173,8.42832014 17.6895527,8.55106584 17.5260407,8.60187992 C17.511176,8.61474842 16.9794243,8.77906927 16.7277375,8.89653559 C16.7132106,8.90742432 16.4848344,9.00443302 16.3179441,9.23474619 C16.2828093,9.27170188 16.1490267,9.47429828 15.9551097,9.53666101 C15.9057858,9.54688982 15.8034219,9.59440428 15.7284226,9.66765575 C15.6537612,9.74090722 15.5845051,9.81448864 15.5203165,9.85342411 C15.4581549,9.89301949 15.3125482,10.0444718 15.2101843,10.2530076 C15.1946439,10.2820442 15.1635631,10.3203197 15.1622117,10.2530076 C15.1544416,10.1678775 15.1662658,10.0593201 15.1635631,10.0576703 C15.2260625,9.79535087 15.3486965,9.6620464 15.4544387,9.54688982 C15.4125472,9.53534117 15.4176147,9.54293028 15.3743719,9.51983297 C15.1811305,9.54293028 14.5723525,9.48914655 14.2064775,9.66270633 C14.1791129,9.67656471 14.152424,9.67227521 14.1791129,9.63432963 C14.2473555,9.54458009 14.3835029,9.19977026 15.2037654,9.18129241 C15.2145761,9.10540125 14.8372148,8.92590217 14.6466761,8.92590217 C14.5878929,8.92590217 14.6210007,8.89323597 14.6466761,8.88399705 C14.6902568,8.86485928 15.0510642,8.712747 15.478425,8.98496529 C15.4976815,8.97242675 15.7861923,8.87013866 15.9490286,8.8569402 C16.1490267,8.712747 16.5882118,8.28214717 16.7638858,8.21450505 C16.7625344,8.18942797 16.7480076,8.0973687 16.7709803,8.0046495 L16.7480076,8.00003004 C16.520307,7.68260702 16.4831452,7.21439157 16.4926046,6.95669159 C16.0220009,6.91313666 15.5176138,6.50200456 15.2490353,6.16841343 C14.9064709,6.146306 14.2277611,5.86187914 13.8639132,5.14388279 C12.6237223,6.01465134 11.8162975,7.56415082 11.7706898,7.63575248 C11.7440008,7.65818986 11.7281226,7.65818986 11.704812,7.64169178 C11.5710295,7.40114981 11.5419757,7.03357263 11.5869077,6.91874601 C11.8271082,6.27829063 12.4007514,5.39630338 13.0223671,4.61264468 C12.7875721,3.29345837 14.031817,2.85526942 14.5145827,2.8717675 C15.0152537,2.88232627 15.3662639,3.20007925 15.4284254,3.2984078" id="Fill-13" fill="#003C68"></path>
                    <path d="M13.7831707,4.5060671 C13.670334,4.5060671 13.5797943,4.4176374 13.5797943,4.30875009 C13.5797943,4.19986277 13.670334,4.11143307 13.7831707,4.11143307 C13.8939805,4.11143307 13.9845202,4.19986277 13.9845202,4.30875009 C13.9845202,4.4176374 13.8939805,4.5060671 13.7831707,4.5060671 Z M17.8530647,3.49044542 C17.8530647,3.49044542 17.8250244,3.49044542 17.8493485,3.46866796 C17.8780644,3.39937603 18.1314404,3.29345837 18.293601,3.28223968 C17.5675944,3.00012255 17.0942881,3.34493238 17.1071258,3.30632687 L17.1013826,3.28223968 C17.1013826,3.28223968 17.1993546,3.12055852 17.4378659,2.95854739 C16.7638858,2.95854739 16.4236863,3.30929653 16.4236863,3.30929653 L16.4196323,3.26112214 C16.4196323,3.26112214 16.4659156,3.12616786 16.6804406,2.9258812 C15.9220019,2.94864854 15.3297777,3.89002887 15.3297777,3.89002887 C15.3297777,3.89002887 15.1983601,3.21657733 14.5362042,3.21657733 C14.0541141,3.14497567 12.9723676,3.79170033 13.3872285,4.66708834 C13.194325,5.01684759 12.5598715,5.55930439 12.0196739,6.65576665 C12.0075119,6.67886396 12.0304846,6.67094488 12.0196739,6.69404219 C12.505818,6.01465134 13.2135815,5.14388279 13.9304666,4.7172425 C14.0034389,4.77168615 14.4186377,5.8236036 15.3723449,5.88299668 C15.478425,5.95954776 15.9551097,6.73759711 16.8007098,6.66104603 C16.8111826,6.74815588 16.8101691,7.49617874 16.9567894,7.7393604 L16.9925998,7.78390522 C16.9892215,7.76080791 16.998343,7.78093556 16.998343,7.78093556 C17.0652343,7.70735413 17.5452973,7.36782369 17.9398882,7.24144841 C17.9398882,7.24144841 18.1108325,6.72670838 18.2253584,6.59571364 C19.049675,6.41093517 19.4723061,5.77476929 19.4996707,5.16038087 C19.5158868,4.30545047 18.7304212,3.38023826 17.8530647,3.49044542 L17.8530647,3.49044542 Z" id="Fill-14" fill="#FFFFFF"></path>
                    <path d="M25.6124507,3.2984078 C26.1898101,2.63881464 26.937776,2.56985268 27.2783133,2.55368456 C29.7086957,2.48010313 30.9394273,4.2562862 30.8846981,5.67611078 C30.8245636,7.29622203 29.5664673,7.67402802 29.395523,7.72022263 C29.395523,7.72022263 29.3755908,8.07196166 29.6556557,8.54479657 C29.6738988,8.57911257 29.7303172,8.62101769 29.6759258,8.71208708 C29.6684934,8.73188477 29.6195074,8.81899462 29.6066697,8.8354927 C29.595859,8.85100089 29.5738997,8.90181497 29.5901158,8.96285786 C29.6211966,9.06712571 29.5813321,9.19383095 29.5009274,9.33868408 C29.4411307,9.47000878 29.510049,9.79832053 29.5428189,10.0200547 C29.5512648,10.0669092 29.5174813,10.068559 29.4864005,10.034903 C29.3316723,9.93789427 29.2134301,9.63531952 29.1752548,9.46736908 C28.8803252,9.54293028 28.5380987,9.96660092 28.4242484,10.2134122 C28.4124242,10.2487181 28.3506005,10.2850138 28.3404654,10.2071429 C28.3340466,10.1876752 28.2776282,9.7118706 28.7482318,9.36541096 C28.5097206,9.29149957 28.2614121,9.40500635 28.092157,9.49442593 C28.0810084,9.50597459 28.0100632,9.53666101 28.0631032,9.46175974 C28.0745896,9.44526166 28.2103991,9.14334683 28.8421499,9.05623698 C28.8492444,9.03478948 28.9813378,8.83219308 29.0350535,8.67546134 C29.0205266,8.44481822 28.8985683,8.15544193 28.7482318,7.8861933 C28.7255969,7.88751314 28.275939,7.92446884 27.9590501,8.16303105 C27.9381044,8.17556958 27.8972264,8.21648482 27.8972264,8.27719774 C27.8972264,8.33824063 27.8972264,8.40984229 27.8972264,8.40984229 C27.9026317,8.42832014 27.875605,8.55106584 27.7134443,8.60187992 C27.6989175,8.61474842 27.1664901,8.77906927 26.9124384,8.89653559 C26.8996007,8.90742432 26.6712245,9.00443302 26.504672,9.23474619 C26.4681859,9.27170188 26.3333898,9.47429828 26.1414998,9.53666101 C26.0921759,9.54688982 25.9894742,9.59440428 25.9148127,9.66765575 C25.8401513,9.74090722 25.7708952,9.81448864 25.7073822,9.85342411 C25.642518,9.89301949 25.4996139,10.0444718 25.3958987,10.2530076 C25.3796826,10.2820442 25.350291,10.3203197 25.3486019,10.2530076 C25.3411695,10.1678775 25.352318,10.0593201 25.350291,10.0576703 C25.4104256,9.79535087 25.5323839,9.6620464 25.6398153,9.54688982 C25.5979238,9.53534117 25.6043427,9.54293028 25.560762,9.51983297 C25.3668449,9.54293028 24.7580669,9.48914655 24.3928677,9.66270633 C24.365503,9.67656471 24.3384763,9.67227521 24.365503,9.63432963 C24.4337456,9.54458009 24.5695552,9.19977026 25.3904933,9.18129241 C25.4023176,9.10540125 25.0225914,8.92590217 24.8317149,8.92590217 C24.7732695,8.92590217 24.8087421,8.89323597 24.8317149,8.88399705 C24.8752955,8.86485928 25.2374543,8.712747 25.6634637,8.98496529 C25.6837338,8.97242675 25.9722446,8.87013866 26.1360944,8.8569402 C26.3333898,8.712747 26.7739262,8.28214717 26.9506137,8.21450505 C26.9489245,8.18942797 26.9350733,8.0973687 26.9570326,8.0046495 L26.9350733,8.00003004 C26.7056836,7.68260702 26.670211,7.21439157 26.6793325,6.95669159 C26.2077153,6.91313666 25.7036661,6.50200456 25.436101,6.16841343 C25.092861,6.146306 24.4148269,5.86187914 24.048952,5.14388279 C22.810788,6.01465134 22.0026876,7.56415082 21.9587691,7.63575248 C21.9297153,7.65818986 21.9124857,7.65818986 21.8898508,7.64169178 C21.7560683,7.40114981 21.7276902,7.03357263 21.7722843,6.91874601 C22.0134983,6.27829063 22.5851145,5.39630338 23.2087572,4.61264468 C22.9729487,3.29345837 24.2171936,2.85526942 24.700635,2.8717675 C25.2009681,2.88232627 25.552654,3.20007925 25.6124507,3.2984078" id="Fill-15" fill="#003C68"></path>
                    <path d="M23.9678717,4.5060671 C23.8567241,4.5060671 23.7665222,4.4176374 23.7665222,4.30875009 C23.7665222,4.19986277 23.8567241,4.11143307 23.9678717,4.11143307 C24.0796949,4.11143307 24.1698968,4.19986277 24.1698968,4.30875009 C24.1698968,4.4176374 24.0796949,4.5060671 23.9678717,4.5060671 Z M28.0394548,3.49044542 C28.0394548,3.49044542 28.0100632,3.49044542 28.0357386,3.46866796 C28.0631032,3.39937603 28.316817,3.29345837 28.4796533,3.28223968 C27.7533088,3.00012255 27.2783133,3.34493238 27.2928402,3.30632687 L27.2874349,3.28223968 C27.2874349,3.28223968 27.3857447,3.12055852 27.624256,2.95854739 C26.9506137,2.95854739 26.6094007,3.30929653 26.6094007,3.30929653 L26.6073737,3.26112214 C26.6073737,3.26112214 26.6502787,3.12616786 26.8668307,2.9258812 C26.1067028,2.94864854 25.5161678,3.89002887 25.5161678,3.89002887 C25.5161678,3.89002887 25.3833988,3.21657733 24.7215808,3.21657733 C24.2381394,3.14497567 23.1577442,3.79170033 23.5736186,4.66708834 C23.3807151,5.01684759 22.7452481,5.55930439 22.2047127,6.65576665 C22.193902,6.67886396 22.2155234,6.67094488 22.2047127,6.69404219 C22.6935594,6.01465134 23.3989581,5.14388279 24.1171946,4.7172425 C24.1891534,4.77168615 24.6040143,5.8236036 25.5570458,5.88299668 C25.6634637,5.95954776 26.1414998,6.73759711 26.9877755,6.66104603 C26.9979106,6.74815588 26.9962214,7.49617874 27.1435173,7.7393604 L27.1783143,7.78390522 C27.1756116,7.76080791 27.1837196,7.78093556 27.1837196,7.78093556 C27.2509487,7.70735413 27.7306739,7.36782369 28.1266161,7.24144841 C28.1266161,7.24144841 28.2958713,6.72670838 28.4114107,6.59571364 C29.2353894,6.41093517 29.6593719,5.77476929 29.6850473,5.16038087 C29.7012634,4.30545047 28.9168113,3.38023826 28.0394548,3.49044542 L28.0394548,3.49044542 Z" id="Fill-16" fill="#FFFFFF"></path>
                </g>
            </g>
        </g>
    </g>
</svg>